<?xml version="1.0" encoding="utf-8"?>
<!-- Generator: Adobe Illustrator 19.0.0, SVG Export Plug-In . SVG Version: 6.00 Build 0)  -->
<svg version="1.1" id="Layer_1" xmlns="http://www.w3.org/2000/svg" xmlns:xlink="http://www.w3.org/1999/xlink" x="0px" y="0px"
	 viewBox="0 0 66 66" style="enable-background:new 0 0 66 66;" xml:space="preserve">
<style type="text/css">
	.st0{opacity:0.1;}
	.st1{fill:#B263A0;}
</style>
<g id="XMLID_3_" class="st0">
	<path id="XMLID_2_" class="st1" d="M33,66C14.8,66,0,51.2,0,33S14.8,0,33,0s33,14.8,33,33S51.2,66,33,66z M33,6C18.1,6,6,18.1,6,33
		s12.1,27,27,27s27-12.1,27-27S47.9,6,33,6z"/>
</g>
<path id="XMLID_5_" class="st1" d="M33,66v-6c14.9,0,27-12.1,27-27S47.9,6,33,6C20.2,6,9.1,15.1,6.5,27.6l-5.9-1.2
	C3.8,11.1,17.4,0,33,0c18.2,0,33,14.8,33,33S51.2,66,33,66z"/>
</svg>
