<?xml version="1.0" encoding="utf-8"?>
<!-- Generator: Adobe Illustrator 19.0.0, SVG Export Plug-In . SVG Version: 6.00 Build 0)  -->
<svg version="1.1" id="Layer_1" xmlns="http://www.w3.org/2000/svg" xmlns:xlink="http://www.w3.org/1999/xlink" x="0px" y="0px"
	 viewBox="0 0 41.2 44.5" style="enable-background:new 0 0 41.2 44.5;" xml:space="preserve">
<style type="text/css">
	.st0{fill:#B263A0;}
	.st1{fill:#FFFFFF;}
</style>
<path id="XMLID_36_" class="st0" d="M18.3,10H6.2c-1.6,0-2.9-1.3-2.9-2.9V2.9C3.2,1.3,4.5,0,6.2,0h12.2c1.6,0,2.9,1.3,2.9,2.9v4.1
	C21.3,8.7,20,10,18.3,10z M6.2,2C5.6,2,5.2,2.4,5.2,2.9v4.1C5.2,7.6,5.6,8,6.2,8h12.2c0.5,0,0.9-0.4,0.9-0.9V2.9
	c0-0.5-0.4-0.9-0.9-0.9H6.2z"/>
<path id="XMLID_33_" class="st0" d="M18.5,43.8H6c-3.3,0-6-2.7-6-6V14c0-3.3,2.7-6,6-6h12.5c3.3,0,6,2.7,6,6v23.8
	C24.5,41.1,21.8,43.8,18.5,43.8z M6,10c-2.2,0-4,1.8-4,4v23.8c0,2.2,1.8,4,4,4h12.5c2.2,0,4-1.8,4-4V14c0-2.2-1.8-4-4-4H6z"/>
<g id="XMLID_31_">
	<path id="XMLID_27_" class="st1" d="M40.2,33.5c0,5.5-5,10-10.5,10s-10-4.5-10-10s4.5-10,10-10S40.2,28,40.2,33.5z"/>
	<path id="XMLID_28_" class="st0" d="M29.7,44.5c-6.1,0-11-4.9-11-11c0-6.1,4.9-11,11-11c6.2,0,11.5,5,11.5,11
		C41.2,39.5,35.9,44.5,29.7,44.5z M29.7,24.5c-5,0-9,4-9,9c0,5,4,9,9,9c5.1,0,9.5-4.1,9.5-9C39.2,28.6,34.8,24.5,29.7,24.5z"/>
</g>
</svg>
