<?xml version="1.0" encoding="utf-8"?>
<!-- Generator: Adobe Illustrator 19.0.0, SVG Export Plug-In . SVG Version: 6.00 Build 0)  -->
<svg version="1.1" id="Layer_1" xmlns="http://www.w3.org/2000/svg" xmlns:xlink="http://www.w3.org/1999/xlink" x="0px" y="0px"
	 viewBox="0 0 40 49.5" style="enable-background:new 0 0 40 49.5;" xml:space="preserve">
<style type="text/css">
	.st0{fill:#B263A0;}
</style>
<g>
	<rect id="XMLID_24_" x="20.1" y="16.4" class="st0" width="12" height="2"/>
	<rect id="XMLID_23_" x="25" y="11.5" class="st0" width="2" height="11.8"/>
</g>
<path id="XMLID_20_" class="st0" d="M37,49.5H3c-1.7,0-3-1.3-3-3V3c0-1.7,1.3-3,3-3h34c1.7,0,3,1.3,3,3v43.5
	C40,48.2,38.7,49.5,37,49.5z M3,2C2.4,2,2,2.4,2,3v43.5c0,0.6,0.4,1,1,1h34c0.6,0,1-0.4,1-1V3c0-0.6-0.4-1-1-1H3z"/>
<path id="XMLID_17_" class="st0" d="M26.2,7.2H13V0h13.2V7.2z M15,5.2h9.2V2H15V5.2z"/>
<rect id="XMLID_16_" x="7.9" y="31.1" class="st0" width="24.2" height="2"/>
<rect id="XMLID_15_" x="7.9" y="38" class="st0" width="24.2" height="2"/>
</svg>
