<?xml version="1.0" encoding="utf-8"?>
<!-- Generator: Adobe Illustrator 19.0.0, SVG Export Plug-In . SVG Version: 6.00 Build 0)  -->
<svg version="1.1" id="Layer_1" xmlns="http://www.w3.org/2000/svg" xmlns:xlink="http://www.w3.org/1999/xlink" x="0px" y="0px"
	 viewBox="0 0 41.6 41.6" style="enable-background:new 0 0 41.6 41.6;" xml:space="preserve">
<style type="text/css">
	.st0{fill:#262C3D;}
</style>
<path id="XMLID_18_" class="st0" d="M20.8,41.6C9.3,41.6,0,32.3,0,20.8S9.3,0,20.8,0s20.8,9.3,20.8,20.8S32.3,41.6,20.8,41.6z
	 M20.8,1C9.9,1,1,9.9,1,20.8s8.9,19.8,19.8,19.8s19.8-8.9,19.8-19.8S31.7,1,20.8,1z M22.6,12.7c0,0.6-0.2,1.1-0.6,1.5
	c-0.4,0.4-1,0.6-1.6,0.6c-0.7,0-1.2-0.2-1.6-0.6S18,13.3,18,12.7c0-0.6,0.2-1.1,0.6-1.5c0.4-0.4,1-0.6,1.6-0.6
	c0.7,0,1.2,0.2,1.6,0.6C22.4,11.6,22.6,12.1,22.6,12.7z M18.2,16.1v13.2h4.1V16.1H18.2z"/>
</svg>
