<?xml version="1.0" encoding="utf-8"?>
<!-- Generator: Adobe Illustrator 19.0.0, SVG Export Plug-In . SVG Version: 6.00 Build 0)  -->
<svg version="1.1" id="Layer_1" xmlns="http://www.w3.org/2000/svg" xmlns:xlink="http://www.w3.org/1999/xlink" x="0px" y="0px"
	 viewBox="0 0 44 27" style="enable-background:new 0 0 44 27;" xml:space="preserve">
<style type="text/css">
	.st0{opacity:0.4;fill:#202E3B;}
</style>
<path id="XMLID_7_" class="st0" d="M4.8,27c-0.7,0-1.5-0.2-2.1-0.5c-1.3-0.7-2.3-1.9-2.5-3.3l0-0.1c-0.6-8.5,1-14.8,4.7-18.6
	C8,1.2,12.9-0.3,19.3,0.1c0,0,0,0,0,0c3.1,0,5.7,2.6,5.7,5.8V15c0,1.8-1,3.4-2.6,4.1L6.9,26.5C6.2,26.9,5.5,27,4.8,27z M2.1,22.8
	c0.2,0.8,0.7,1.5,1.5,1.9c0.8,0.4,1.7,0.4,2.4,0l15.5-7.4C22.4,16.9,23,16,23,15V5.8C23,3.7,21.3,2,19.2,2c-5.8-0.3-10.2,1-13,3.8
	C2.9,9.2,1.6,14.9,2.1,22.8z"/>
<path id="XMLID_4_" class="st0" d="M29.2,16.9c-0.3,0-0.7-0.1-1-0.2c-0.7-0.4-1.2-1.1-1.2-2V4.9c0-2.3,1.8-4.1,4.1-4.1h9.1
	c1.7,0,3.1,1,3.7,2.7c0.5,1.6,0,3.3-1.4,4.3l-12,8.7C30.1,16.7,29.6,16.9,29.2,16.9z M31.1,2.8c-1.2,0-2.1,0.9-2.1,2.1v9.8
	c0,0.1,0,0.1,0.1,0.2s0.1,0,0.2,0l12-8.7c0.8-0.6,0.9-1.5,0.7-2.1s-0.8-1.3-1.8-1.3H31.1z"/>
</svg>
