<?xml version="1.0" encoding="utf-8"?>
<!-- Generator: Adobe Illustrator 19.0.0, SVG Export Plug-In . SVG Version: 6.00 Build 0)  -->
<svg version="1.1" id="Layer_1" xmlns="http://www.w3.org/2000/svg" xmlns:xlink="http://www.w3.org/1999/xlink" x="0px" y="0px"
	 viewBox="-283 383 44 27" style="enable-background:new -283 383 44 27;" xml:space="preserve">
<style type="text/css">
	.st0{fill:#74CFB2;enable-background:new    ;}
</style>
<path id="XMLID_7_" class="st0" d="M-278.2,410c-0.7,0-1.5-0.2-2.1-0.5c-1.3-0.7-2.3-1.9-2.5-3.3v-0.1c-0.6-8.5,1-14.8,4.7-18.6
	c3.1-3.3,8-4.8,14.4-4.4l0,0c3.1,0,5.7,2.6,5.7,5.8v9.1c0,1.8-1,3.4-2.6,4.1l-15.5,7.4C-276.8,409.9-277.5,410-278.2,410z
	 M-280.9,405.8c0.2,0.8,0.7,1.5,1.5,1.9c0.8,0.4,1.7,0.4,2.4,0l15.5-7.4c0.9-0.4,1.5-1.3,1.5-2.3v-9.2c0-2.1-1.7-3.8-3.8-3.8
	c-5.8-0.3-10.2,1-13,3.8C-280.1,392.2-281.4,397.9-280.9,405.8z"/>
<path id="XMLID_4_" class="st0" d="M-253.8,399.9c-0.3,0-0.7-0.1-1-0.2c-0.7-0.4-1.2-1.1-1.2-2v-9.8c0-2.3,1.8-4.1,4.1-4.1h9.1
	c1.7,0,3.1,1,3.7,2.7c0.5,1.6,0,3.3-1.4,4.3l-12,8.7C-252.9,399.7-253.4,399.9-253.8,399.9z M-251.9,385.8c-1.2,0-2.1,0.9-2.1,2.1
	v9.8c0,0.1,0,0.1,0.1,0.2c0.1,0.1,0.1,0,0.2,0l12-8.7c0.8-0.6,0.9-1.5,0.7-2.1c-0.2-0.6-0.8-1.3-1.8-1.3H-251.9z"/>
</svg>
