<?xml version="1.0" encoding="utf-8"?>
<!-- Generator: Adobe Illustrator 19.0.0, SVG Export Plug-In . SVG Version: 6.00 Build 0)  -->
<svg version="1.1" id="Layer_1" xmlns="http://www.w3.org/2000/svg" xmlns:xlink="http://www.w3.org/1999/xlink" x="0px" y="0px"
	 viewBox="0 0 76.9 46.5" style="enable-background:new 0 0 76.9 46.5;" xml:space="preserve">
<style type="text/css">
	.st0{fill:#B263A0;}
</style>
<g>
	<path id="XMLID_37_" class="st0" d="M38,22.8c-5,0-9-4-9-9c0-5,4-9,9-9s9,4,9,9C47,18.8,42.9,22.8,38,22.8z M38,6.8
		c-3.9,0-7,3.1-7,7s3.1,7,7,7s7-3.1,7-7S41.8,6.8,38,6.8z"/>
	<path id="XMLID_36_" class="st0" d="M58,46.5h-2c0-9.9-8.1-18-18-18s-18,8.1-18,18h-2c0-11,9-20,20-20S58,35.5,58,46.5z"/>
	<path id="XMLID_33_" class="st0" d="M12.5,11.7c-3.2,0-5.9-2.6-5.9-5.9C6.7,2.6,9.3,0,12.5,0s5.9,2.6,5.9,5.9
		C18.4,9.1,15.8,11.7,12.5,11.7z M12.5,2c-2.1,0-3.9,1.7-3.9,3.9s1.7,3.9,3.9,3.9s3.9-1.7,3.9-3.9S14.7,2,12.5,2z"/>
	<path id="XMLID_32_" class="st0" d="M25.1,25.7h-2c0-5.8-4.7-10.5-10.5-10.5S2,19.9,2,25.7H0c0-6.9,5.6-12.5,12.5-12.5
		S25.1,18.8,25.1,25.7z"/>
	<path id="XMLID_29_" class="st0" d="M64.4,11.7c-3.2,0-5.9-2.6-5.9-5.9c0-3.2,2.6-5.9,5.9-5.9s5.9,2.6,5.9,5.9
		C70.2,9.1,67.6,11.7,64.4,11.7z M64.4,2c-2.1,0-3.9,1.7-3.9,3.9s1.7,3.9,3.9,3.9s3.9-1.7,3.9-3.9S66.5,2,64.4,2z"/>
	<path id="XMLID_28_" class="st0" d="M76.9,25.7h-2c0-5.8-4.7-10.5-10.5-10.5s-10.5,4.7-10.5,10.5h-2c0-6.9,5.6-12.5,12.5-12.5
		S76.9,18.8,76.9,25.7z"/>
</g>
</svg>
