<?xml version="1.0" encoding="utf-8"?>
<!-- Generator: Adobe Illustrator 19.0.0, SVG Export Plug-In . SVG Version: 6.00 Build 0)  -->
<svg version="1.1" id="Layer_1" xmlns="http://www.w3.org/2000/svg" xmlns:xlink="http://www.w3.org/1999/xlink" x="0px" y="0px"
	 viewBox="0 0 23.7 23.7" style="enable-background:new 0 0 23.7 23.7;" xml:space="preserve">
<style type="text/css">
	.st0{fill:#35374C;}
</style>
<path id="XMLID_19_" class="st0" d="M23.7,23.7H0v-4.9c0-4.5,7.9-6.4,11.9-6.4c4,0,11.9,1.9,11.9,6.4V23.7z M2,21.7h19.7v-2.9
	c0-2.5-6-4.4-9.9-4.4S2,16.3,2,18.9V21.7z M11.9,11.3c-3.1,0-5.7-2.5-5.7-5.7S8.7,0,11.9,0c3.1,0,5.6,2.5,5.6,5.7S15,11.3,11.9,11.3
	z M11.9,2c-2,0-3.7,1.6-3.7,3.7s1.6,3.7,3.7,3.7c2,0,3.6-1.6,3.6-3.7S13.9,2,11.9,2z"/>
</svg>
